<?xml version="1.0" encoding="UTF-8"?>
<svg width="321px" height="68px" viewBox="0 0 321 68" version="1.1" xmlns="http://www.w3.org/2000/svg" xmlns:xlink="http://www.w3.org/1999/xlink">
    <!-- Generator: Sketch 51.2 (57519) - http://www.bohemiancoding.com/sketch -->
    <title>logo</title>
    <desc>Created with Sketch.</desc>
    <defs></defs>
    <g id="logo" stroke="none" stroke-width="1" fill="none" fill-rule="evenodd">
        <g id="Group-Copy-3">
            <rect id="Rectangle" fill="#2B2B2B" x="0" y="0" width="321" height="68"></rect>
            <path d="M205,42.9327957 C204.543579,43.6344121 203.979401,44.2970399 203.307448,44.9206989 C202.635496,45.544358 201.868467,46.0835551 201.006339,46.5383065 C200.144211,46.9930578 199.212366,47.3503571 198.210777,47.6102151 C197.209187,47.870073 196.15056,48 195.034865,48 C193.031686,48 191.174335,47.6362044 189.462758,46.9086022 C187.75118,46.1809999 186.267835,45.1740656 185.012678,43.8877688 C183.757521,42.6014721 182.774964,41.0748296 182.064976,39.3077957 C181.354989,37.5407618 181,35.6048492 181,33.5 C181,31.3951508 181.354989,29.4592382 182.064976,27.6922043 C182.774964,25.9251704 183.757521,24.3985279 185.012678,23.1122312 C186.267835,21.8259344 187.75118,20.8190001 189.462758,20.0913978 C191.174335,19.3637956 193.031686,19 195.034865,19 C196.708408,19 198.381925,19.3378102 200.055468,20.0134409 C201.72901,20.6890715 203.161642,21.8064438 204.353407,23.3655914 L201.957211,25.1975806 C201.678287,24.7558222 201.297942,24.3140703 200.816165,23.8723118 C200.334387,23.4305533 199.782887,23.0407723 199.161648,22.702957 C198.540409,22.3651417 197.874805,22.0922949 197.164818,21.8844086 C196.45483,21.6765223 195.744853,21.5725806 195.034865,21.5725806 C193.310609,21.5725806 191.763874,21.8973982 190.394612,22.547043 C189.02535,23.1966878 187.865298,24.0671988 186.914422,25.1586022 C185.963545,26.2500055 185.234551,27.5167939 184.727417,28.9590054 C184.220283,30.4012169 183.966719,31.9148666 183.966719,33.5 C183.966719,35.0851334 184.220283,36.5987831 184.727417,38.0409946 C185.234551,39.4832061 185.963545,40.7499945 186.914422,41.8413978 C187.865298,42.9328012 189.02535,43.8033122 190.394612,44.452957 C191.763874,45.1026018 193.310609,45.4274194 195.034865,45.4274194 C195.744853,45.4274194 196.448491,45.3624558 197.1458,45.2325269 C197.84311,45.1025979 198.52773,44.881722 199.199683,44.5698925 C199.871636,44.258063 200.505544,43.8358002 201.101426,43.3030914 C201.697309,42.7703826 202.248809,42.1012585 202.755943,41.2956989 L205,42.9327957 Z M218.884615,48 L216.115385,48 L216.115385,22.6101695 L207,22.6101695 L207,20 L228,20 L228,22.6101695 L218.884615,22.6101695 L218.884615,48 Z M235,48 L232,48 L232,20 L235,20 L235,48 Z M266,34 C266,32.4052208 265.747998,30.8823602 265.243986,29.4313725 C264.739975,27.9803849 264.015469,26.7058878 263.070447,25.6078431 C262.125425,24.5097984 260.972515,23.6339902 259.611684,22.9803922 C258.250852,22.3267941 256.71364,22 255,22 C253.28636,22 251.749148,22.3267941 250.388316,22.9803922 C249.027485,23.6339902 247.874575,24.5097984 246.929553,25.6078431 C245.984531,26.7058878 245.260025,27.9803849 244.756014,29.4313725 C244.252002,30.8823602 244,32.4052208 244,34 C244,35.5947792 244.252002,37.1176398 244.756014,38.5686275 C245.260025,40.0196151 245.984531,41.2941122 246.929553,42.3921569 C247.874575,43.4902016 249.027485,44.3660098 250.388316,45.0196078 C251.749148,45.6732059 253.28636,46 255,46 C256.71364,46 258.250852,45.6732059 259.611684,45.0196078 C260.972515,44.3660098 262.125425,43.4902016 263.070447,42.3921569 C264.015469,41.2941122 264.739975,40.0196151 265.243986,38.5686275 C265.747998,37.1176398 266,35.5947792 266,34 Z M269,33.5 C269,35.6048492 268.645893,37.5407618 267.937669,39.3077957 C267.229445,41.0748296 266.249329,42.6014721 264.99729,43.8877688 C263.745251,45.1740656 262.265591,46.1809999 260.558266,46.9086022 C258.85094,47.6362044 256.998203,48 255,48 C253.001797,48 251.14906,47.6362044 249.441734,46.9086022 C247.734409,46.1809999 246.254749,45.1740656 245.00271,43.8877688 C243.750671,42.6014721 242.770555,41.0748296 242.062331,39.3077957 C241.354107,37.5407618 241,35.6048492 241,33.5 C241,31.3951508 241.354107,29.4592382 242.062331,27.6922043 C242.770555,25.9251704 243.750671,24.3985279 245.00271,23.1122312 C246.254749,21.8259344 247.734409,20.8190001 249.441734,20.0913978 C251.14906,19.3637956 253.001797,19 255,19 C256.998203,19 258.85094,19.3637956 260.558266,20.0913978 C262.265591,20.8190001 263.745251,21.8259344 264.99729,23.1122312 C266.249329,24.3985279 267.229445,25.9251704 267.937669,27.6922043 C268.645893,29.4592382 269,31.3951508 269,33.5 Z M294.221843,43.7288136 L294.296928,43.7288136 L294.296928,20 L297,20 L297,48 L293.62116,48 L277.778157,24.0338983 L277.703072,24.0338983 L277.703072,48 L275,48 L275,20 L278.37884,20 L294.221843,43.7288136 Z" id="CTION-Copy" fill="#C3C622"></path>
            <g id="Group-Copy" transform="translate(162.500000, 33.000000) rotate(90.000000) translate(-162.500000, -33.000000) translate(148.000000, 21.000000)" stroke-width="2">
                <g id="Group-2" transform="translate(14.500000, 12.000000) rotate(-90.000000) translate(-14.500000, -12.000000) translate(3.000000, -2.000000)">
                    <path d="M1.10160428,28 L22.1016043,18" id="Line" stroke="#FFFFFF" stroke-linecap="square" transform="translate(11.550802, 22.500000) scale(-1, 1) translate(-11.550802, -22.500000) "></path>
                    <polyline id="Path-2" stroke="#C3C622" points="1 12.5 11.5 0 22 12.5"></polyline>
                </g>
            </g>
            <path d="M24,19 L44,19 L43.9602386,24.4271429 L30.2823062,24.4271429 L30.2823062,31.5528571 L42.8469185,31.5528571 L42.8469185,37.0214286 L30.2823062,37.0214286 L30.2823062,48 L24,48 L24,19 Z M61,19 C69.537234,19 76,25.1910112 76,33.4592697 C76,41.6867978 69.537234,48 61,48 C52.462766,48 46,41.7275281 46,33.4592697 C46,25.1502809 52.462766,19 61,19 Z M61.5794393,25 C56.8925234,25 53,28.8807339 53,33.9587156 C53,39.0366972 56.932243,43 61.5794393,43 C66.2266355,43 70,39.0366972 70,33.9587156 C70,28.8807339 66.2266355,25 61.5794393,25 Z M106,48 L98.6518883,48 L94.0952381,39.7142857 L87.4860427,39.7142857 L87.4860427,48 L81,48 L81,19 L93.4794745,19 C100.99179,19 105.261084,22.6457143 105.261084,29.0671429 C105.261084,33.5414286 103.372742,36.7728571 99.8834154,38.43 L106,48 Z M87,25 L87,35 L92.6749117,35 C96.0565371,35 98,33.3122363 98,29.9367089 C98,26.6455696 96.0565371,25 92.6749117,25 L87,25 Z M110,19 L117.219737,19 L125.540789,36.7314286 L133.821053,19 L141,19 L141,48 L135.207895,48 L135.207895,28.4457143 L127.621053,45.0585714 L123.419737,45.0585714 L115.832895,28.4457143 L115.832895,48 L110,48 L110,19 Z" id="FORM-Copy" fill="#FFFFFF"></path>
        </g>
    </g>
</svg>