<?xml version="1.0" encoding="UTF-8"?>
<svg width="159px" height="20px" viewBox="0 0 159 20" version="1.1" xmlns="http://www.w3.org/2000/svg" xmlns:xlink="http://www.w3.org/1999/xlink">
    <!-- Generator: Sketch 51.2 (57519) - http://www.bohemiancoding.com/sketch -->
    <title>logo_black</title>
    <desc>Created with Sketch.</desc>
    <defs></defs>
    <g id="logo_black" stroke="none" stroke-width="1" fill="none" fill-rule="evenodd">
        <g id="Group-Copy-4">
            <path d="M104.862069,15.2043011 C104.598447,15.5913998 104.272585,15.9569875 103.884475,16.3010753 C103.496364,16.645163 103.053339,16.9426511 102.555386,17.1935484 C102.057432,17.4444457 101.519212,17.6415763 100.940707,17.7849462 C100.362203,17.9283161 99.7507546,18 99.1063446,18 C97.9493357,18 96.8765556,17.7992852 95.887972,17.3978495 C94.8993885,16.9964138 94.0426289,16.4408638 93.3176676,15.7311828 C92.5927064,15.0215018 92.0251947,14.1792163 91.6151156,13.2043011 C91.2050365,12.2293858 91,11.1612961 91,10 C91,8.83870387 91.2050365,7.77061419 91.6151156,6.79569892 C92.0251947,5.82078366 92.5927064,4.97849817 93.3176676,4.2688172 C94.0426289,3.55913624 94.8993885,3.00358624 95.887972,2.60215054 C96.8765556,2.20071484 97.9493357,2 99.1063446,2 C100.07296,2 101.03956,2.18637806 102.006175,2.55913978 C102.97279,2.93190151 103.800259,3.5483828 104.488606,4.40860215 L103.104596,5.41935484 C102.943493,5.17562602 102.723811,4.93190086 102.445543,4.68817204 C102.167276,4.44444323 101.848737,4.22939161 101.489917,4.04301075 C101.131098,3.85662989 100.746655,3.70609376 100.336576,3.59139785 C99.9264967,3.47670194 99.5164237,3.41935484 99.1063446,3.41935484 C98.1104382,3.41935484 97.217065,3.59856452 96.4261982,3.95698925 C95.6353313,4.31541398 94.9653014,4.79569591 94.4160883,5.39784946 C93.8668752,6.00000301 93.4458182,6.69892075 93.1529045,7.49462366 C92.8599909,8.29032656 92.7135363,9.12544366 92.7135363,10 C92.7135363,10.8745563 92.8599909,11.7096734 93.1529045,12.5053763 C93.4458182,13.3010792 93.8668752,13.999997 94.4160883,14.6021505 C94.9653014,15.2043041 95.6353313,15.684586 96.4261982,16.0430108 C97.217065,16.4014355 98.1104382,16.5806452 99.1063446,16.5806452 C99.5164237,16.5806452 99.9228353,16.5448032 100.325592,16.4731183 C100.728348,16.4014333 101.123775,16.2795708 101.511886,16.1075269 C101.899996,15.935483 102.266133,15.7025104 102.610307,15.4086022 C102.95448,15.1146939 103.273019,14.7455219 103.565933,14.3010753 L104.862069,15.2043011 Z M112.881631,18 L111.282162,18 L111.282162,3.99181765 L106.017241,3.99181765 L106.017241,2.55172414 L118.146552,2.55172414 L118.146552,3.99181765 L112.881631,3.99181765 L112.881631,18 Z M122.189655,18 L120.456897,18 L120.456897,2.55172414 L122.189655,2.55172414 L122.189655,18 Z M140.094828,10.2758621 C140.094828,9.39598388 139.949275,8.55578494 139.658164,7.75524003 C139.367054,6.95469512 138.94859,6.25152433 138.402758,5.64570656 C137.856926,5.03988879 137.191022,4.55668425 136.405024,4.19607843 C135.619027,3.83547262 134.731154,3.65517241 133.741379,3.65517241 C132.751605,3.65517241 131.863732,3.83547262 131.077734,4.19607843 C130.291737,4.55668425 129.625832,5.03988879 129.080001,5.64570656 C128.534169,6.25152433 128.115704,6.95469512 127.824594,7.75524003 C127.533484,8.55578494 127.387931,9.39598388 127.387931,10.2758621 C127.387931,11.1557403 127.533484,11.9959392 127.824594,12.7964841 C128.115704,13.597029 128.534169,14.3001998 129.080001,14.9060176 C129.625832,15.5118353 130.291737,15.9950399 131.077734,16.3556457 C131.863732,16.7162515 132.751605,16.8965517 133.741379,16.8965517 C134.731154,16.8965517 135.619027,16.7162515 136.405024,16.3556457 C137.191022,15.9950399 137.856926,15.5118353 138.402758,14.9060176 C138.94859,14.3001998 139.367054,13.597029 139.658164,12.7964841 C139.949275,11.9959392 140.094828,11.1557403 140.094828,10.2758621 Z M141.827586,10 C141.827586,11.1612961 141.623059,12.2293858 141.213999,13.2043011 C140.804938,14.1792163 140.238836,15.0215018 139.515676,15.7311828 C138.792516,16.4408638 137.937885,16.9964138 136.951757,17.3978495 C135.965629,17.7992852 134.895514,18 133.741379,18 C132.587245,18 131.517129,17.7992852 130.531002,17.3978495 C129.544874,16.9964138 128.690243,16.4408638 127.967083,15.7311828 C127.243922,15.0215018 126.67782,14.1792163 126.26876,13.2043011 C125.8597,12.2293858 125.655172,11.1612961 125.655172,10 C125.655172,8.83870387 125.8597,7.77061419 126.26876,6.79569892 C126.67782,5.82078366 127.243922,4.97849817 127.967083,4.2688172 C128.690243,3.55913624 129.544874,3.00358624 130.531002,2.60215054 C131.517129,2.20071484 132.587245,2 133.741379,2 C134.895514,2 135.965629,2.20071484 136.951757,2.60215054 C137.937885,3.00358624 138.792516,3.55913624 139.515676,4.2688172 C140.238836,4.97849817 140.804938,5.82078366 141.213999,6.79569892 C141.623059,7.77061419 141.827586,8.83870387 141.827586,10 Z M156.395375,15.6434833 L156.438743,15.6434833 L156.438743,2.55172414 L158,2.55172414 L158,18 L156.048429,18 L146.897729,4.7773232 L146.85436,4.7773232 L146.85436,18 L145.293103,18 L145.293103,2.55172414 L147.244675,2.55172414 L156.395375,15.6434833 Z" id="CTION-Copy" fill="#C3C622"></path>
            <g id="Group-Copy" transform="translate(80.000000, 9.000000) rotate(90.000000) translate(-80.000000, -9.000000) translate(71.500000, 1.500000)" stroke-width="2">
                <g id="Group-2" transform="translate(8.763158, 7.119700) rotate(-90.000000) translate(-8.763158, -7.119700) translate(1.763158, -0.880300)">
                    <path d="M0.645768025,15.4736842 L12.9561129,9.94736842" id="Line" stroke="#2B2B2B" stroke-linecap="square" transform="translate(6.771160, 12.434211) scale(-1, 1) translate(-6.771160, -12.434211) "></path>
                    <polyline id="Path-2" stroke="#C3C622" points="0.586206897 6.90789474 6.74137931 0 12.8965517 6.90789474"></polyline>
                </g>
            </g>
            <path d="M0,2 L11.6239316,2 L11.6008224,4.99428571 L3.65125486,4.99428571 L3.65125486,8.92571429 L10.9537646,8.92571429 L10.9537646,11.9428571 L3.65125486,11.9428571 L3.65125486,18 L0,18 L0,2 Z M21.5042735,2 C26.4660847,2 30.2222222,5.41573034 30.2222222,9.97752809 C30.2222222,14.5168539 26.4660847,18 21.5042735,18 C16.5424623,18 12.7863248,14.5393258 12.7863248,9.97752809 C12.7863248,5.39325843 16.5424623,2 21.5042735,2 Z M21.8410416,5.31034483 C19.1170221,5.31034483 16.8547009,7.45143942 16.8547009,10.2530845 C16.8547009,13.0547295 19.140107,15.2413793 21.8410416,15.2413793 C24.5419762,15.2413793 26.7350427,13.0547295 26.7350427,10.2530845 C26.7350427,7.45143942 24.5419762,5.31034483 21.8410416,5.31034483 Z M47.6581197,18 L43.3874223,18 L40.7391127,13.4285714 L36.897871,13.4285714 L36.897871,18 L33.1282051,18 L33.1282051,2 L40.3812331,2 C44.747365,2 47.2286641,4.01142857 47.2286641,7.55428571 C47.2286641,10.0228571 46.1311664,11.8057143 44.1031816,12.72 L47.6581197,18 Z M36.6153846,5.31034483 L36.6153846,10.8275862 L39.9136239,10.8275862 C41.879013,10.8275862 43.008547,9.89640623 43.008547,8.03404627 C43.008547,6.21824531 41.879013,5.31034483 39.9136239,5.31034483 L36.6153846,5.31034483 Z M49.982906,2 L54.1789924,2 L59.0151597,11.7828571 L63.8276203,2 L68,2 L68,18 L64.6336482,18 L64.6336482,7.21142857 L60.2242015,16.3771429 L57.7824112,16.3771429 L53.3729645,7.21142857 L53.3729645,18 L49.982906,18 L49.982906,2 Z" id="FORM-Copy" fill="#2B2B2B"></path>
        </g>
    </g>
</svg>